font.ufo
<glyph name="numbersign" format="2">
  <advance width="732"/>
  <unicode hex="0023"/>
  <guideline x="86" y="360" angle="82.093"/>
  <guideline x="652" y="360" angle="82.093"/>
  <outline>
    <contour>
      <point x="110" y="0" type="line"/>
      <point x="250" y="0" type="line"/>
      <point x="363" y="730" type="line"/>
      <point x="223" y="730" type="line"/>
    </contour>
    <contour>
      <point x="370" y="0" type="line"/>
      <point x="510" y="0" type="line"/>
      <point x="623" y="730" type="line"/>
      <point x="483" y="730" type="line"/>
    </contour>
    <contour>
      <point x="32" y="177" type="line"/>
      <point x="660" y="177" type="line"/>
      <point x="660" y="295" type="line"/>
      <point x="32" y="295" type="line"/>
    </contour>
    <contour>
      <point x="72" y="435" type="line"/>
      <point x="700" y="435" type="line"/>
      <point x="700" y="553" type="line"/>
      <point x="72" y="553" type="line"/>
    </contour>
  </outline>
</glyph>
<glyph name="parenleft" format="2">
  <advance width="398"/>
  <unicode hex="0028"/>
  <guideline y="-182"/>
  <outline>
    <contour>
      <point x="188" y="-182" type="curve"/>
      <point x="394" y="-182" type="line"/>
      <point x="267" y="-45"/>
      <point x="220" y="111"/>
      <point x="220" y="303" type="curve" smooth="yes"/>
      <point x="220" y="497"/>
      <point x="299" y="646"/>
      <point x="394" y="776" type="curve"/>
      <point x="194" y="776" type="line"/>
      <point x="103" y="661"/>
      <point x="40" y="524"/>
      <point x="40" y="303" type="curve" smooth="yes"/>
      <point x="40" y="83"/>
      <point x="97" y="-61"/>
    </contour>
  </outline>
</glyph>
<glyph name="hyphen" format="2">
  <advance width="510"/>
  <unicode hex="002D"/>
  <outline>
    <contour>
      <point x="36" y="203" type="line"/>
      <point x="474" y="203" type="line"/>
      <point x="474" y="365" type="line"/>
      <point x="36" y="365" type="line"/>
    </contour>
  </outline>
</glyph>
<glyph name="equal" format="2">
  <advance width="590"/>
  <unicode hex="003D"/>
  <outline>
    <contour>
      <point x="44" y="370" type="line"/>
      <point x="546" y="370" type="line"/>
      <point x="546" y="518" type="line"/>
      <point x="44" y="518" type="line"/>
    </contour>
    <contour>
      <point x="44" y="142" type="line"/>
      <point x="546" y="142" type="line"/>
      <point x="546" y="290" type="line"/>
      <point x="44" y="290" type="line"/>
    </contour>
  </outline>
</glyph>
<glyph name="greater" format="2">
  <advance width="598"/>
  <unicode hex="003E"/>
  <outline>
    <contour>
      <point x="68" y="66" type="line"/>
      <point x="530" y="211" type="line"/>
      <point x="530" y="358" type="line"/>
      <point x="68" y="220" type="line"/>
    </contour>
    <contour>
      <point x="530" y="294" type="line"/>
      <point x="530" y="445" type="line"/>
      <point x="68" y="590" type="line"/>
      <point x="68" y="432" type="line"/>
    </contour>
    <contour>
      <point x="400" y="289" type="line"/>
      <point x="430" y="289" type="line"/>
      <point x="430" y="371" type="line"/>
      <point x="400" y="371" type="line"/>
    </contour>
  </outline>
</glyph>
<glyph name="at" format="2">
  <advance width="1129"/>
  <unicode hex="0040"/>
  <outline>
    <contour>
      <point x="567" y="-247" type="curve" smooth="yes"/>
      <point x="611" y="-247"/>
      <point x="667" y="-242"/>
      <point x="707" y="-234" type="curve"/>
      <point x="707" y="-101" type="line"/>
      <point x="666" y="-109"/>
      <point x="611" y="-115"/>
      <point x="567" y="-115" type="curve" smooth="yes"/>
      <point x="342" y="-115"/>
      <point x="182" y="21"/>
      <point x="182" y="251" type="curve" smooth="yes"/>
      <point x="182" y="484"/>
      <point x="328" y="620"/>
      <point x="573" y="620" type="curve" smooth="yes"/>
      <point x="768" y="620"/>
      <point x="938" y="522"/>
      <point x="938" y="291" type="curve" smooth="yes"/>
      <point x="938" y="188"/>
      <point x="912" y="126"/>
      <point x="857" y="126" type="curve" smooth="yes"/>
      <point x="826" y="126"/>
      <point x="814" y="147"/>
      <point x="814" y="183" type="curve" smooth="yes"/>
      <point x="814" y="475" type="line"/>
      <point x="688" y="475" type="line"/>
      <point x="688" y="282" type="line"/>
      <point x="704" y="282" type="line"/>
      <point x="698" y="411"/>
      <point x="622" y="495"/>
      <point x="502" y="495" type="curve" smooth="yes"/>
      <point x="378" y="495"/>
      <point x="287" y="406"/>
      <point x="287" y="259" type="curve" smooth="yes"/>
      <point x="287" y="243" type="line" smooth="yes"/>
      <point x="287" y="96"/>
      <point x="384" y="2"/>
      <point x="510" y="2" type="curve" smooth="yes"/>
      <point x="626" y="2"/>
      <point x="700" y="80"/>
      <point x="706" y="223" type="curve"/>
      <point x="672" y="223" type="line"/>
      <point x="672" y="171" type="line" smooth="yes"/>
      <point x="672" y="62"/>
      <point x="739" y="-4"/>
      <point x="844" y="-4" type="curve" smooth="yes"/>
      <point x="995" y="-4"/>
      <point x="1076" y="121"/>
      <point x="1076" y="295" type="curve" smooth="yes"/>
      <point x="1076" y="590"/>
      <point x="848" y="750"/>
      <point x="572" y="750" type="curve" smooth="yes"/>
      <point x="248" y="750"/>
      <point x="44" y="555"/>
      <point x="44" y="251" type="curve" smooth="yes"/>
      <point x="44" y="-57"/>
      <point x="267" y="-247"/>
    </contour>
    <contour>
      <point x="543" y="132" type="curve" smooth="yes"/>
      <point x="476" y="132"/>
      <point x="439" y="184"/>
      <point x="439" y="251" type="curve" smooth="yes"/>
      <point x="439" y="318"/>
      <point x="478" y="365"/>
      <point x="543" y="365" type="curve" smooth="yes"/>
      <point x="602" y="365"/>
      <point x="646" y="326"/>
      <point x="646" y="262" type="curve" smooth="yes"/>
      <point x="646" y="244" type="line" smooth="yes"/>
      <point x="646" y="173"/>
      <point x="602" y="132"/>
    </contour>
  </outline>
</glyph>
<glyph name="L" format="2">
  <advance width="562"/>
  <unicode hex="004C"/>
  <anchor x="305" y="0" name="bottom"/>
  <anchor x="167" y="365" name="center"/>
  <anchor x="167" y="730" name="top"/>
  <anchor x="278" y="541" name="topright"/>
  <outline>
    <contour>
      <point x="74" y="0" type="line"/>
      <point x="260" y="0" type="line"/>
      <point x="260" y="730" type="line"/>
      <point x="74" y="730" type="line"/>
    </contour>
    <contour>
      <point x="240" y="0" type="line"/>
      <point x="536" y="0" type="line"/>
      <point x="536" y="162" type="line"/>
      <point x="240" y="162" type="line"/>
    </contour>
  </outline>
</glyph>
<glyph name="O" format="2">
  <advance width="864"/>
  <unicode hex="004F"/>
  <anchor x="432" y="0" name="bottom"/>
  <anchor x="432" y="352" name="center"/>
  <anchor x="562" y="10" name="ogonek"/>
  <anchor x="432" y="730" name="top"/>
  <outline>
    <contour>
      <point x="432" y="-20" type="curve" smooth="yes"/>
      <point x="697" y="-20"/>
      <point x="826" y="190"/>
      <point x="826" y="356" type="curve" smooth="yes"/>
      <point x="826" y="378" type="line" smooth="yes"/>
      <point x="826" y="561"/>
      <point x="688" y="752"/>
      <point x="432" y="752" type="curve" smooth="yes"/>
      <point x="174" y="752"/>
      <point x="38" y="561"/>
      <point x="38" y="378" type="curve" smooth="yes"/>
      <point x="38" y="356" type="line" smooth="yes"/>
      <point x="38" y="190"/>
      <point x="166" y="-20"/>
    </contour>
    <contour>
      <point x="432" y="154" type="curve" smooth="yes"/>
      <point x="304" y="154"/>
      <point x="226" y="246"/>
      <point x="226" y="366" type="curve" smooth="yes"/>
      <point x="226" y="493"/>
      <point x="305" y="578"/>
      <point x="432" y="578" type="curve" smooth="yes"/>
      <point x="558" y="578"/>
      <point x="638" y="493"/>
      <point x="638" y="366" type="curve" smooth="yes"/>
      <point x="638" y="246"/>
      <point x="559" y="154"/>
    </contour>
  </outline>
</glyph>
<glyph name="T" format="2">
  <advance width="626"/>
  <unicode hex="0054"/>
  <anchor x="313" y="0" name="bottom"/>
  <anchor x="313" y="365" name="center"/>
  <anchor x="313" y="730" name="top"/>
  <outline>
    <contour>
      <point x="220" y="0" type="line"/>
      <point x="406" y="0" type="line"/>
      <point x="406" y="588" type="line"/>
      <point x="220" y="588" type="line"/>
    </contour>
    <contour>
      <point x="20" y="568" type="line"/>
      <point x="606" y="568" type="line"/>
      <point x="606" y="730" type="line"/>
      <point x="20" y="730" type="line"/>
    </contour>
  </outline>
</glyph>
<glyph name="U" format="2">
  <advance width="771"/>
  <unicode hex="0055"/>
  <anchor x="386" y="0" name="bottom"/>
  <anchor x="540" y="17" name="ogonek"/>
  <anchor x="386" y="730" name="top"/>
  <outline>
    <contour>
      <point x="386" y="-20" type="curve" smooth="yes"/>
      <point x="596" y="-20"/>
      <point x="711" y="103"/>
      <point x="711" y="299" type="curve" smooth="yes"/>
      <point x="711" y="730" type="line"/>
      <point x="525" y="730" type="line"/>
      <point x="525" y="295" type="line" smooth="yes"/>
      <point x="525" y="207"/>
      <point x="475" y="154"/>
      <point x="386" y="154" type="curve" smooth="yes"/>
      <point x="296" y="154"/>
      <point x="246" y="208"/>
      <point x="246" y="295" type="curve" smooth="yes"/>
      <point x="246" y="730" type="line"/>
      <point x="60" y="730" type="line"/>
      <point x="60" y="299" type="line" smooth="yes"/>
      <point x="60" y="103"/>
      <point x="176" y="-20"/>
    </contour>
  </outline>
</glyph>
<glyph name="V" format="2">
  <advance width="750"/>
  <unicode hex="0056"/>
  <outline>
    <contour>
      <point x="232" y="0" type="line"/>
      <point x="532" y="0" type="line"/>
      <point x="730" y="730" type="line"/>
      <point x="544" y="730" type="line"/>
      <point x="396" y="131" type="line"/>
      <point x="432" y="148" type="line"/>
      <point x="336" y="148" type="line"/>
      <point x="371" y="131" type="line"/>
      <point x="212" y="730" type="line"/>
      <point x="20" y="730" type="line"/>
    </contour>
  </outline>
</glyph>
<glyph name="f" format="2">
  <advance width="383"/>
  <unicode hex="0066"/>
  <outline>
    <contour>
      <point x="78" y="0" type="line"/>
      <point x="246" y="0" type="line"/>
      <point x="246" y="558" type="line" smooth="yes"/>
      <point x="246" y="590"/>
      <point x="264" y="608"/>
      <point x="296" y="608" type="curve" smooth="yes"/>
      <point x="371" y="608" type="line"/>
      <point x="371" y="742" type="line"/>
      <point x="300" y="742" type="line" smooth="yes"/>
      <point x="153" y="742"/>
      <point x="78" y="679"/>
      <point x="78" y="550" type="curve" smooth="yes"/>
    </contour>
    <contour>
      <point x="16" y="408" type="line"/>
      <point x="379" y="408" type="line"/>
      <point x="379" y="540" type="line"/>
      <point x="16" y="540" type="line"/>
    </contour>
  </outline>
</glyph>
<glyph name="n" format="2">
  <advance width="656"/>
  <unicode hex="006E"/>
  <anchor x="333" y="0" name="bottom"/>
  <anchor x="335" y="552" name="top"/>
  <outline>
    <contour>
      <point x="66" y="0" type="line"/>
      <point x="248" y="0" type="line"/>
      <point x="248" y="319" type="line" smooth="yes"/>
      <point x="248" y="372"/>
      <point x="282" y="408"/>
      <point x="334" y="408" type="curve" smooth="yes"/>
      <point x="386" y="408"/>
      <point x="418" y="372"/>
      <point x="418" y="321" type="curve" smooth="yes"/>
      <point x="418" y="0" type="line"/>
      <point x="600" y="0" type="line"/>
      <point x="600" y="316" type="line" smooth="yes"/>
      <point x="600" y="488"/>
      <point x="528" y="570"/>
      <point x="403" y="570" type="curve" smooth="yes"/>
      <point x="395" y="570" type="line" smooth="yes"/>
      <point x="270" y="570"/>
      <point x="202" y="487"/>
      <point x="202" y="315" type="curve"/>
      <point x="210" y="315" type="line"/>
      <point x="210" y="552" type="line"/>
      <point x="66" y="552" type="line"/>
    </contour>
  </outline>
</glyph>
<glyph name="t" format="2">
  <advance width="436"/>
  <unicode hex="0074"/>
  <anchor x="248" y="0" name="bottom"/>
  <anchor x="200" y="290" name="center"/>
  <anchor x="169" y="696" name="top"/>
  <anchor x="245" y="576" name="topright"/>
  <outline>
    <contour>
      <point x="329" y="-8" type="curve" smooth="yes"/>
      <point x="404" y="-8" type="line"/>
      <point x="404" y="144" type="line"/>
      <point x="328" y="144" type="line" smooth="yes"/>
      <point x="279" y="144"/>
      <point x="252" y="171"/>
      <point x="252" y="220" type="curve" smooth="yes"/>
      <point x="253" y="696" type="line"/>
      <point x="85" y="696" type="line"/>
      <point x="84" y="225" type="line" smooth="yes"/>
      <point x="84" y="51"/>
      <point x="149" y="-8"/>
    </contour>
    <contour>
      <point x="4" y="420" type="line"/>
      <point x="404" y="420" type="line"/>
      <point x="404" y="552" type="line"/>
      <point x="4" y="552" type="line"/>
    </contour>
  </outline>
</glyph>
<glyph name="v" format="2">
  <advance width="609"/>
  <unicode hex="0076"/>
  <outline>
    <contour>
      <point x="170" y="0" type="line"/>
      <point x="345" y="0" type="line"/>
      <point x="198" y="552" type="line"/>
      <point x="12" y="552" type="line"/>
    </contour>
    <contour>
      <point x="228" y="0" type="line"/>
      <point x="405" y="0" type="line"/>
      <point x="405" y="152" type="line"/>
      <point x="228" y="152" type="line"/>
    </contour>
    <contour>
      <point x="292" y="0" type="line"/>
      <point x="455" y="0" type="line"/>
      <point x="591" y="552" type="line"/>
      <point x="417" y="552" type="line"/>
    </contour>
  </outline>
</glyph>
<glyph name="x" format="2">
  <advance width="614"/>
  <unicode hex="0078"/>
  <outline>
    <contour>
      <point x="6" y="0" type="line"/>
      <point x="190" y="0" type="line"/>
      <point x="290" y="193" type="line"/>
      <point x="306" y="193" type="line"/>
      <point x="414" y="0" type="line"/>
      <point x="610" y="0" type="line"/>
      <point x="437" y="289" type="line"/>
      <point x="433" y="267" type="line"/>
      <point x="580" y="552" type="line"/>
      <point x="396" y="552" type="line"/>
      <point x="312" y="371" type="line"/>
      <point x="296" y="371" type="line"/>
      <point x="207" y="552" type="line"/>
      <point x="11" y="552" type="line"/>
      <point x="165" y="272" type="line"/>
      <point x="169" y="298" type="line"/>
    </contour>
  </outline>
</glyph>
<glyph name="y" format="2">
  <advance width="577"/>
  <unicode hex="0079"/>
  <anchor x="292" y="552" name="top"/>
  <outline>
    <contour>
      <point x="70" y="-220" type="line"/>
      <point x="177" y="-220" type="line" smooth="yes"/>
      <point x="335" y="-220"/>
      <point x="395" y="-176"/>
      <point x="428" y="-40" type="curve" smooth="yes"/>
      <point x="573" y="552" type="line"/>
      <point x="401" y="552" type="line"/>
      <point x="277" y="-5" type="line" smooth="yes"/>
      <point x="266" y="-53"/>
      <point x="243" y="-68"/>
      <point x="197" y="-68" type="curve" smooth="yes"/>
      <point x="70" y="-68" type="line"/>
    </contour>
    <contour>
      <point x="245" y="12" type="line"/>
      <point x="361" y="12" type="line"/>
      <point x="361" y="152" type="line"/>
      <point x="245" y="152" type="line"/>
    </contour>
    <contour>
      <point x="161" y="12" type="line"/>
      <point x="333" y="12" type="line"/>
      <point x="182" y="552" type="line"/>
      <point x="0" y="552" type="line"/>
    </contour>
  </outline>
</glyph>
<glyph name="sterling" format="2">
  <advance width="640"/>
  <unicode hex="00A3"/>
  <outline>
    <contour>
      <point x="104" y="0" type="line"/>
      <point x="270" y="0" type="line"/>
      <point x="270" y="476" type="line" smooth="yes"/>
      <point x="270" y="552"/>
      <point x="301" y="596"/>
      <point x="400" y="596" type="curve" smooth="yes"/>
      <point x="438" y="596"/>
      <point x="527" y="590"/>
      <point x="566" y="586" type="curve"/>
      <point x="566" y="732" type="line"/>
      <point x="528" y="736"/>
      <point x="443" y="742"/>
      <point x="400" y="742" type="curve" smooth="yes"/>
      <point x="220" y="742"/>
      <point x="104" y="653"/>
      <point x="104" y="483" type="curve" smooth="yes"/>
    </contour>
    <contour>
      <point x="40" y="0" type="line"/>
      <point x="508" y="0" type="line"/>
      <point x="508" y="140" type="line"/>
      <point x="40" y="140" type="line"/>
    </contour>
    <contour>
      <point x="46" y="312" type="line"/>
      <point x="500" y="312" type="line"/>
      <point x="500" y="432" type="line"/>
      <point x="46" y="432" type="line"/>
    </contour>
    <contour>
      <point x="472" y="0" type="line"/>
      <point x="612" y="0" type="line"/>
      <point x="612" y="226" type="line"/>
      <point x="472" y="226" type="line"/>
    </contour>
  </outline>
</glyph>
<glyph name="copyright" format="2">
  <advance width="710"/>
  <unicode hex="00A9"/>
  <outline>
    <contour>
      <point x="355" y="106" type="curve" smooth="yes"/>
      <point x="575" y="106"/>
      <point x="670" y="275"/>
      <point x="670" y="415" type="curve" smooth="yes"/>
      <point x="670" y="433" type="line" smooth="yes"/>
      <point x="670" y="578"/>
      <point x="571" y="740"/>
      <point x="355" y="740" type="curve" smooth="yes"/>
      <point x="139" y="740"/>
      <point x="40" y="578"/>
      <point x="40" y="433" type="curve" smooth="yes"/>
      <point x="40" y="415" type="line" smooth="yes"/>
      <point x="40" y="275"/>
      <point x="135" y="106"/>
    </contour>
    <contour>
      <point x="355" y="160" type="curve" smooth="yes"/>
      <point x="197" y="160"/>
      <point x="100" y="283"/>
      <point x="100" y="423" type="curve" smooth="yes"/>
      <point x="100" y="568"/>
      <point x="197" y="686"/>
      <point x="355" y="686" type="curve" smooth="yes"/>
      <point x="513" y="686"/>
      <point x="610" y="568"/>
      <point x="610" y="423" type="curve" smooth="yes"/>
      <point x="610" y="283"/>
      <point x="513" y="160"/>
    </contour>
    <contour>
      <point x="356" y="233" type="curve" smooth="yes"/>
      <point x="460" y="233"/>
      <point x="534" y="296"/>
      <point x="539" y="389" type="curve"/>
      <point x="416" y="389" type="line"/>
      <point x="412" y="355"/>
      <point x="395" y="335"/>
      <point x="360" y="335" type="curve" smooth="yes"/>
      <point x="311" y="335"/>
      <point x="296" y="366"/>
      <point x="296" y="421" type="curve" smooth="yes"/>
      <point x="296" y="478"/>
      <point x="315" y="509"/>
      <point x="360" y="509" type="curve" smooth="yes"/>
      <point x="394" y="509"/>
      <point x="411" y="487"/>
      <point x="414" y="459" type="curve"/>
      <point x="536" y="459" type="line"/>
      <point x="531" y="549"/>
      <point x="460" y="611"/>
      <point x="356" y="611" type="curve" smooth="yes"/>
      <point x="237" y="611"/>
      <point x="170" y="531"/>
      <point x="170" y="427" type="curve" smooth="yes"/>
      <point x="170" y="414" type="line" smooth="yes"/>
      <point x="170" y="315"/>
      <point x="234" y="233"/>
    </contour>
  </outline>
</glyph>
<glyph name="registered" format="2">
  <advance width="678"/>
  <unicode hex="00AE"/>
  <outline>
    <contour>
      <point x="339" y="174" type="curve" smooth="yes"/>
      <point x="526" y="174"/>
      <point x="624" y="320"/>
      <point x="624" y="451" type="curve" smooth="yes"/>
      <point x="624" y="467" type="line" smooth="yes"/>
      <point x="624" y="602"/>
      <point x="522" y="742"/>
      <point x="339" y="742" type="curve" smooth="yes"/>
      <point x="156" y="742"/>
      <point x="54" y="602"/>
      <point x="54" y="467" type="curve" smooth="yes"/>
      <point x="54" y="451" type="line" smooth="yes"/>
      <point x="54" y="320"/>
      <point x="152" y="174"/>
    </contour>
    <contour>
      <point x="339" y="226" type="curve" smooth="yes"/>
      <point x="201" y="226"/>
      <point x="110" y="330"/>
      <point x="110" y="458" type="curve" smooth="yes"/>
      <point x="110" y="590"/>
      <point x="201" y="690"/>
      <point x="339" y="690" type="curve" smooth="yes"/>
      <point x="477" y="690"/>
      <point x="568" y="590"/>
      <point x="568" y="458" type="curve" smooth="yes"/>
      <point x="568" y="330"/>
      <point x="477" y="226"/>
    </contour>
    <contour>
      <point x="213" y="306" type="line"/>
      <point x="305" y="306" type="line"/>
      <point x="305" y="623" type="line"/>
      <point x="213" y="623" type="line"/>
    </contour>
    <contour>
      <point x="396" y="306" type="line"/>
      <point x="496" y="306" type="line"/>
      <point x="424" y="429" type="line"/>
      <point x="330" y="429" type="line"/>
    </contour>
    <contour>
      <point x="256" y="393" type="line"/>
      <point x="342" y="393" type="line" smooth="yes"/>
      <point x="434" y="393"/>
      <point x="481" y="432"/>
      <point x="481" y="508" type="curve" smooth="yes"/>
      <point x="481" y="584"/>
      <point x="434" y="623"/>
      <point x="342" y="623" type="curve" smooth="yes"/>
      <point x="256" y="623" type="line"/>
      <point x="256" y="547" type="line"/>
      <point x="344" y="547" type="line" smooth="yes"/>
      <point x="377" y="547"/>
      <point x="389" y="532"/>
      <point x="389" y="508" type="curve" smooth="yes"/>
      <point x="389" y="484"/>
      <point x="377" y="469"/>
      <point x="344" y="469" type="curve" smooth="yes"/>
      <point x="256" y="469" type="line"/>
    </contour>
  </outline>
</glyph>
<glyph name="AE" format="2">
  <advance width="986"/>
  <unicode hex="00C6"/>
  <outline>
    <contour>
      <point x="-8" y="0" type="line"/>
      <point x="178" y="0" type="line"/>
      <point x="415" y="600" type="line"/>
      <point x="365" y="580" type="line"/>
      <point x="493" y="580" type="line"/>
      <point x="493" y="730" type="line"/>
      <point x="280" y="730" type="line"/>
    </contour>
    <contour>
      <point x="217" y="179" type="line"/>
      <point x="493" y="179" type="line"/>
      <point x="493" y="332" type="line"/>
      <point x="273" y="332" type="line"/>
    </contour>
    <contour>
      <point x="472" y="0" type="line"/>
      <point x="649" y="0" type="line"/>
      <point x="649" y="730" type="line"/>
      <point x="472" y="730" type="line"/>
    </contour>
    <contour>
      <point x="628" y="0" type="line"/>
      <point x="936" y="0" type="line"/>
      <point x="936" y="152" type="line"/>
      <point x="628" y="152" type="line"/>
    </contour>
    <contour>
      <point x="628" y="295" type="line"/>
      <point x="916" y="295" type="line"/>
      <point x="916" y="447" type="line"/>
      <point x="628" y="447" type="line"/>
    </contour>
    <contour>
      <point x="628" y="578" type="line"/>
      <point x="930" y="578" type="line"/>
      <point x="930" y="730" type="line"/>
      <point x="628" y="730" type="line"/>
    </contour>
  </outline>
</glyph>
<glyph name="thorn" format="2">
  <advance width="708"/>
  <unicode hex="00FE"/>
  <outline>
    <contour>
      <point x="66" y="-200" type="line"/>
      <point x="248" y="-200" type="line"/>
      <point x="248" y="158" type="line"/>
      <point x="204" y="212" type="line"/>
      <point x="208" y="56"/>
      <point x="297" y="-18"/>
      <point x="425" y="-18" type="curve" smooth="yes"/>
      <point x="586" y="-18"/>
      <point x="674" y="101"/>
      <point x="674" y="263" type="curve" smooth="yes"/>
      <point x="674" y="287" type="line" smooth="yes"/>
      <point x="674" y="453"/>
      <point x="586" y="564"/>
      <point x="439" y="564" type="curve" smooth="yes"/>
      <point x="306" y="564"/>
      <point x="230" y="474"/>
      <point x="224" y="342" type="curve"/>
      <point x="248" y="342" type="line"/>
      <point x="248" y="730" type="line"/>
      <point x="66" y="730" type="line"/>
    </contour>
    <contour>
      <point x="370" y="132" type="curve" smooth="yes"/>
      <point x="309" y="132"/>
      <point x="244" y="175"/>
      <point x="244" y="253" type="curve" smooth="yes"/>
      <point x="244" y="287" type="line" smooth="yes"/>
      <point x="244" y="369"/>
      <point x="304" y="414"/>
      <point x="370" y="414" type="curve" smooth="yes"/>
      <point x="443" y="414"/>
      <point x="492" y="360"/>
      <point x="492" y="275" type="curve" smooth="yes"/>
      <point x="492" y="190"/>
      <point x="442" y="132"/>
    </contour>
  </outline>
</glyph>
<glyph name="Hbar" format="2">
  <advance width="798"/>
  <unicode hex="0126"/>
  <anchor x="399" y="0" name="bottom"/>
  <anchor x="399" y="606" name="center"/>
  <anchor x="399" y="730" name="top"/>
  <outline>
    <contour>
      <point x="25" y="533" type="line"/>
      <point x="773" y="533" type="line"/>
      <point x="773" y="657" type="line"/>
      <point x="25" y="657" type="line"/>
    </contour>
    <component base="H"/>
  </outline>
</glyph>
<glyph name="eng" format="2">
  <advance width="656"/>
  <unicode hex="014B"/>
  <anchor x="333" y="0" name="bottom"/>
  <anchor x="335" y="552" name="top"/>
  <outline>
    <contour>
      <point x="312" y="-204" type="line"/>
      <point x="354" y="-204" type="line" smooth="yes"/>
      <point x="526" y="-204"/>
      <point x="600" y="-142"/>
      <point x="600" y="0" type="curve" smooth="yes"/>
      <point x="600" y="33" type="line"/>
      <point x="418" y="33" type="line"/>
      <point x="418" y="0" type="line" smooth="yes"/>
      <point x="418" y="-32"/>
      <point x="406" y="-52"/>
      <point x="358" y="-52" type="curve" smooth="yes"/>
      <point x="312" y="-52" type="line"/>
    </contour>
    <component base="n"/>
  </outline>
</glyph>
<glyph name="circumflexcomb" format="2">
  <unicode hex="0302"/>
  <anchor x="212" y="552" name="_top"/>
  <anchor x="215" y="824" name="top"/>
  <outline>
    <contour>
      <point x="0" y="612" type="line"/>
      <point x="150" y="612" type="line"/>
      <point x="204" y="740" type="line"/>
      <point x="218" y="740" type="line"/>
      <point x="274" y="612" type="line"/>
      <point x="428" y="612" type="line"/>
      <point x="325" y="824" type="line"/>
      <point x="101" y="824" type="line"/>
    </contour>
  </outline>
</glyph>
<glyph name="tildecomb" format="2">
  <unicode hex="0303"/>
  <anchor x="194" y="552" name="_top"/>
  <anchor x="194" y="774" name="top"/>
  <outline>
    <contour>
      <point x="276" y="618" type="curve" smooth="yes"/>
      <point x="329" y="618"/>
      <point x="364" y="639"/>
      <point x="388" y="663" type="curve"/>
      <point x="362" y="787" type="line"/>
      <point x="342" y="768"/>
      <point x="314" y="752"/>
      <point x="276" y="752" type="curve" smooth="yes"/>
      <point x="211" y="752"/>
      <point x="195" y="804"/>
      <point x="111" y="804" type="curve" smooth="yes"/>
      <point x="58" y="804"/>
      <point x="24" y="783"/>
      <point x="0" y="759" type="curve"/>
      <point x="26" y="635" type="line"/>
      <point x="46" y="654"/>
      <point x="73" y="670"/>
      <point x="111" y="670" type="curve" smooth="yes"/>
      <point x="176" y="670"/>
      <point x="192" y="618"/>
    </contour>
  </outline>
</glyph>
<glyph name="macroncomb" format="2">
  <unicode hex="0304"/>
  <anchor x="180" y="552" name="_top"/>
  <anchor x="180" y="784" name="top"/>
  <outline>
    <contour>
      <point x="0" y="642" type="line"/>
      <point x="360" y="642" type="line"/>
      <point x="360" y="768" type="line"/>
      <point x="0" y="768" type="line"/>
    </contour>
  </outline>
</glyph>
<glyph name="brevecomb" format="2">
  <unicode hex="0306"/>
  <anchor x="193" y="552" name="_top"/>
  <anchor x="195" y="824" name="top"/>
  <outline>
    <contour>
      <point x="194" y="606" type="curve" smooth="yes"/>
      <point x="314" y="606"/>
      <point x="380" y="675"/>
      <point x="384" y="824" type="curve"/>
      <point x="254" y="824" type="line"/>
      <point x="252" y="755"/>
      <point x="231" y="734"/>
      <point x="194" y="734" type="curve" smooth="yes"/>
      <point x="157" y="734"/>
      <point x="138" y="755"/>
      <point x="136" y="824" type="curve"/>
      <point x="2" y="824" type="line"/>
      <point x="6" y="675"/>
      <point x="74" y="606"/>
    </contour>
  </outline>
</glyph>
<glyph name="dotaccentcomb" format="2">
  <unicode hex="0307"/>
  <anchor x="92" y="552" name="_top"/>
  <anchor x="92" y="824" name="top"/>
  <outline>
    <contour>
      <point x="92" y="626" type="curve" smooth="yes"/>
      <point x="157" y="626"/>
      <point x="184" y="666"/>
      <point x="184" y="718" type="curve" smooth="yes"/>
      <point x="184" y="770"/>
      <point x="157" y="810"/>
      <point x="92" y="810" type="curve" smooth="yes"/>
      <point x="27" y="810"/>
      <point x="0" y="770"/>
      <point x="0" y="718" type="curve" smooth="yes"/>
      <point x="0" y="666"/>
      <point x="27" y="626"/>
    </contour>
  </outline>
</glyph>
<glyph name="cedillacomb" format="2">
  <unicode hex="0327"/>
  <anchor x="124" y="0" name="_bottom"/>
  <anchor x="116" y="-300" name="bottom"/>
  <outline>
    <contour>
      <point x="119" y="-280" type="curve" smooth="yes"/>
      <point x="226" y="-280"/>
      <point x="282" y="-223"/>
      <point x="282" y="-150" type="curve" smooth="yes"/>
      <point x="282" y="-78"/>
      <point x="226" y="-42"/>
      <point x="130" y="-42" type="curve" smooth="yes"/>
      <point x="117" y="-42" type="line"/>
      <point x="179" y="-87" type="line"/>
      <point x="179" y="14" type="line"/>
      <point x="69" y="14" type="line"/>
      <point x="69" y="-126" type="line"/>
      <point x="126" y="-126" type="line" smooth="yes"/>
      <point x="154" y="-126"/>
      <point x="164" y="-133"/>
      <point x="164" y="-145" type="curve" smooth="yes"/>
      <point x="164" y="-161"/>
      <point x="146" y="-170"/>
      <point x="110" y="-170" type="curve" smooth="yes"/>
      <point x="80" y="-170"/>
      <point x="53" y="-164"/>
      <point x="34" y="-157" type="curve"/>
      <point x="34" y="-267" type="line"/>
      <point x="51" y="-273"/>
      <point x="86" y="-280"/>
    </contour>
  </outline>
</glyph>
<glyph name="strokeshortcomb" format="2">
  <unicode hex="0335"/>
  <anchor x="150" y="267" name="_center"/>
  <outline>
    <contour>
      <point x="-36" y="220" type="line"/>
      <point x="336" y="220" type="line"/>
      <point x="336" y="314" type="line"/>
      <point x="-36" y="314" type="line"/>
    </contour>
  </outline>
</glyph>
<glyph name="riel-khmer" format="2">
  <advance width="546"/>
  <unicode hex="17DB"/>
  <outline>
    <contour>
      <point x="264" y="-8" type="curve" smooth="yes"/>
      <point x="406" y="-8" type="line"/>
      <point x="406" y="365" type="line"/>
      <point x="268" y="365" type="line"/>
      <point x="264" y="61" type="line"/>
      <point x="299" y="98" type="line"/>
      <point x="262" y="98" type="line" smooth="yes"/>
      <point x="223" y="98"/>
      <point x="196" y="116"/>
      <point x="196" y="149" type="curve" smooth="yes"/>
      <point x="196" y="182"/>
      <point x="223" y="200"/>
      <point x="272" y="200" type="curve"/>
      <point x="272" y="306" type="line"/>
      <point x="124" y="306"/>
      <point x="50" y="247"/>
      <point x="50" y="147" type="curve" smooth="yes"/>
      <point x="50" y="49"/>
      <point x="124" y="-8"/>
    </contour>
    <contour>
      <point x="128" y="334" type="line"/>
      <point x="510" y="334" type="line"/>
      <point x="510" y="440" type="line"/>
      <point x="128" y="440" type="line"/>
    </contour>
    <contour>
      <point x="268" y="408" type="line"/>
      <point x="406" y="408" type="line"/>
      <point x="406" y="440" type="line" smooth="yes"/>
      <point x="406" y="500"/>
      <point x="382" y="528"/>
      <point x="341" y="552" type="curve" smooth="yes"/>
      <point x="314" y="568"/>
      <point x="265" y="594"/>
      <point x="252" y="601" type="curve" smooth="yes"/>
      <point x="243" y="606"/>
      <point x="243" y="611"/>
      <point x="246" y="619" type="curve" smooth="yes"/>
      <point x="249" y="626"/>
      <point x="253" y="628"/>
      <point x="269" y="628" type="curve" smooth="yes"/>
      <point x="335" y="628"/>
      <point x="386" y="622"/>
      <point x="441" y="614" type="curve"/>
      <point x="441" y="736" type="line"/>
      <point x="386" y="744"/>
      <point x="332" y="750"/>
      <point x="274" y="750" type="curve" smooth="yes"/>
      <point x="184" y="750"/>
      <point x="145" y="734"/>
      <point x="119" y="669" type="curve" smooth="yes"/>
      <point x="93" y="604"/>
      <point x="110" y="542"/>
      <point x="166" y="510" type="curve" smooth="yes"/>
      <point x="187" y="498"/>
      <point x="231" y="475"/>
      <point x="255" y="461" type="curve" smooth="yes"/>
      <point x="265" y="455"/>
      <point x="268" y="450"/>
      <point x="268" y="440" type="curve" smooth="yes"/>
    </contour>
  </outline>
</glyph>
<glyph name="quoteright" format="2">
  <advance width="278"/>
  <unicode hex="2019"/>
  <outline>
    <contour>
      <point x="36" y="376" type="line"/>
      <point x="63" y="376" type="line" smooth="yes"/>
      <point x="184" y="376"/>
      <point x="248" y="437"/>
      <point x="248" y="576" type="curve" smooth="yes"/>
      <point x="248" y="589" type="line" smooth="yes"/>
      <point x="248" y="703"/>
      <point x="196" y="742"/>
      <point x="135" y="742" type="curve" smooth="yes"/>
      <point x="71" y="742"/>
      <point x="38" y="699"/>
      <point x="38" y="647" type="curve" smooth="yes"/>
      <point x="38" y="591"/>
      <point x="76" y="559"/>
      <point x="127" y="559" type="curve" smooth="yes"/>
      <point x="150" y="559"/>
      <point x="170" y="566"/>
      <point x="179" y="574" type="curve"/>
      <point x="146" y="642" type="line"/>
      <point x="146" y="569" type="line" smooth="yes"/>
      <point x="146" y="496"/>
      <point x="125" y="480"/>
      <point x="74" y="480" type="curve" smooth="yes"/>
      <point x="36" y="480" type="line"/>
    </contour>
  </outline>
</glyph>
<glyph name="bullet" format="2">
  <advance width="436"/>
  <unicode hex="2022"/>
  <outline>
    <contour>
      <point x="78" y="144" type="line"/>
      <point x="358" y="144" type="line"/>
      <point x="358" y="434" type="line"/>
      <point x="78" y="434" type="line"/>
    </contour>
  </outline>
</glyph>
<glyph name="guilsinglleft" format="2">
  <advance width="376"/>
  <unicode hex="2039"/>
  <guideline x="34" y="261" angle="0"/>
  <guideline x="34" y="483" angle="0"/>
  <guideline x="34" y="39" angle="0"/>
  <outline>
    <contour>
      <point x="144" y="39" type="line"/>
      <point x="358" y="39" type="line"/>
      <point x="214" y="242" type="line"/>
      <point x="214" y="280" type="line"/>
      <point x="358" y="483" type="line"/>
      <point x="150" y="483" type="line"/>
      <point x="12" y="284" type="line"/>
      <point x="12" y="234" type="line"/>
    </contour>
  </outline>
</glyph>
<glyph name="greaterequal" format="2">
  <advance width="598"/>
  <unicode hex="2265"/>
  <outline>
    <contour>
      <point x="68" y="21" type="line"/>
      <point x="530" y="21" type="line"/>
      <point x="530" y="163" type="line"/>
      <point x="68" y="163" type="line"/>
    </contour>
    <contour>
      <point x="68" y="210" type="line"/>
      <point x="530" y="334" type="line"/>
      <point x="530" y="462" type="line"/>
      <point x="68" y="356" type="line"/>
    </contour>
    <contour>
      <point x="530" y="406" type="line"/>
      <point x="530" y="538" type="line"/>
      <point x="68" y="661" type="line"/>
      <point x="68" y="511" type="line"/>
    </contour>
    <contour>
      <point x="386" y="397" type="line"/>
      <point x="416" y="397" type="line"/>
      <point x="416" y="479" type="line"/>
      <point x="386" y="479" type="line"/>
    </contour>
  </outline>
</glyph>
<glyph name="I.salt" format="2">
  <advance width="460"/>
  <anchor x="231" y="0" name="bottom"/>
  <anchor x="305" y="10" name="ogonek"/>
  <anchor x="231" y="730" name="top"/>
  <outline>
    <contour>
      <point x="137" y="118" type="line"/>
      <point x="323" y="118" type="line"/>
      <point x="323" y="612" type="line"/>
      <point x="137" y="612" type="line"/>
    </contour>
    <contour>
      <point x="58" y="0" type="line"/>
      <point x="402" y="0" type="line"/>
      <point x="402" y="138" type="line"/>
      <point x="58" y="138" type="line"/>
    </contour>
    <contour>
      <point x="58" y="592" type="line"/>
      <point x="402" y="592" type="line"/>
      <point x="402" y="730" type="line"/>
      <point x="58" y="730" type="line"/>
    </contour>
  </outline>
</glyph>
<glyph name="acutecomb.case" format="2">
  <anchor x="95" y="730" name="_top"/>
  <anchor x="216" y="968" name="top"/>
  <outline>
    <contour>
      <point x="0" y="784" type="line"/>
      <point x="174" y="784" type="line"/>
      <point x="316" y="968" type="line"/>
      <point x="124" y="968" type="line"/>
    </contour>
  </outline>
</glyph>
<glyph name="asterisk.part" format="2">
  <advance width="216"/>
  <guideline x="0" y="470" angle="90"/>
  <guideline x="0" y="470" angle="45"/>
  <guideline x="0" y="470" angle="135"/>
  <outline>
    <contour>
      <point x="151" y="298" type="line"/>
      <point x="216" y="414" type="line"/>
      <point x="97" y="461" type="line"/>
      <point x="97" y="479" type="line"/>
      <point x="216" y="526" type="line"/>
      <point x="151" y="642" type="line"/>
      <point x="0" y="530" type="line"/>
      <point x="0" y="410" type="line"/>
    </contour>
  </outline>
</glyph>
<glyph name="caroncomb.alt" format="2">
  <anchor x="0" y="552" name="_topright"/>
  <outline>
    <contour>
      <point x="52" y="576" type="line"/>
      <point x="190" y="576" type="line"/>
      <point x="208" y="840" type="line"/>
      <point x="52" y="840" type="line"/>
    </contour>
  </outline>
</glyph>
<glyph name="commaturnedabovecomb.case" format="2">
  <anchor x="106" y="720" name="_top"/>
  <anchor x="106" y="916" name="top"/>
  <outline>
    <contour>
      <point x="105" y="756" type="curve" smooth="yes"/>
      <point x="152" y="756"/>
      <point x="193" y="778"/>
      <point x="193" y="831" type="curve" smooth="yes"/>
      <point x="193" y="874"/>
      <point x="166" y="899"/>
      <point x="128" y="899" type="curve" smooth="yes"/>
      <point x="99" y="899"/>
      <point x="81" y="884"/>
      <point x="73" y="866" type="curve"/>
      <point x="94" y="863" type="line"/>
      <point x="94" y="886" type="line" smooth="yes"/>
      <point x="94" y="913"/>
      <point x="113" y="930"/>
      <point x="153" y="930" type="curve" smooth="yes"/>
      <point x="182" y="930" type="line"/>
      <point x="182" y="1018" type="line"/>
      <point x="155" y="1018" type="line" smooth="yes"/>
      <point x="66" y="1018"/>
      <point x="0" y="976"/>
      <point x="0" y="883" type="curve" smooth="yes"/>
      <point x="0" y="877" type="line" smooth="yes"/>
      <point x="0" y="802"/>
      <point x="39" y="756"/>
    </contour>
  </outline>
</glyph>
<glyph name="currency.tnum" format="2">
  <advance width="676"/>
  <outline>
    <contour>
      <point x="338" y="131" type="curve" smooth="yes"/>
      <point x="484" y="131"/>
      <point x="579" y="238"/>
      <point x="579" y="356" type="curve" smooth="yes"/>
      <point x="579" y="372" type="line" smooth="yes"/>
      <point x="579" y="492"/>
      <point x="484" y="597"/>
      <point x="338" y="597" type="curve" smooth="yes"/>
      <point x="192" y="597"/>
      <point x="97" y="492"/>
      <point x="97" y="372" type="curve" smooth="yes"/>
      <point x="97" y="356" type="line" smooth="yes"/>
      <point x="97" y="238"/>
      <point x="192" y="131"/>
    </contour>
    <contour>
      <point x="132" y="56" type="line"/>
      <point x="245" y="169" type="line"/>
      <point x="143" y="273" type="line"/>
      <point x="30" y="160" type="line"/>
    </contour>
    <contour>
      <point x="143" y="453" type="line"/>
      <point x="245" y="557" type="line"/>
      <point x="132" y="670" type="line"/>
      <point x="30" y="566" type="line"/>
    </contour>
    <contour>
      <point x="338" y="267" type="curve" smooth="yes"/>
      <point x="277" y="267"/>
      <point x="251" y="307"/>
      <point x="251" y="364" type="curve" smooth="yes"/>
      <point x="251" y="424"/>
      <point x="279" y="461"/>
      <point x="338" y="461" type="curve" smooth="yes"/>
      <point x="397" y="461"/>
      <point x="425" y="424"/>
      <point x="425" y="364" type="curve" smooth="yes"/>
      <point x="425" y="307"/>
      <point x="399" y="267"/>
    </contour>
    <contour>
      <point x="544" y="56" type="line"/>
      <point x="646" y="160" type="line"/>
      <point x="533" y="273" type="line"/>
      <point x="431" y="169" type="line"/>
    </contour>
    <contour>
      <point x="533" y="453" type="line"/>
      <point x="646" y="566" type="line"/>
      <point x="544" y="670" type="line"/>
      <point x="431" y="557" type="line"/>
    </contour>
  </outline>
</glyph>
<glyph name="euro.tnum" format="2">
  <advance width="676"/>
  <outline>
    <contour>
      <point x="388" y="-18" type="curve" smooth="yes"/>
      <point x="577" y="-18"/>
      <point x="664" y="89"/>
      <point x="670" y="237" type="curve"/>
      <point x="510" y="237" type="line"/>
      <point x="505" y="171"/>
      <point x="470" y="128"/>
      <point x="388" y="128" type="curve" smooth="yes"/>
      <point x="283" y="128"/>
      <point x="243" y="196"/>
      <point x="243" y="365" type="curve" smooth="yes"/>
      <point x="243" y="534"/>
      <point x="279" y="602"/>
      <point x="382" y="602" type="curve" smooth="yes"/>
      <point x="462" y="602"/>
      <point x="497" y="559"/>
      <point x="502" y="493" type="curve"/>
      <point x="662" y="493" type="line"/>
      <point x="656" y="641"/>
      <point x="569" y="748"/>
      <point x="382" y="748" type="curve" smooth="yes"/>
      <point x="183" y="748"/>
      <point x="81" y="620"/>
      <point x="81" y="372" type="curve" smooth="yes"/>
      <point x="81" y="358" type="line" smooth="yes"/>
      <point x="81" y="110"/>
      <point x="187" y="-18"/>
    </contour>
    <contour>
      <point x="8" y="239" type="line"/>
      <point x="429" y="239" type="line"/>
      <point x="429" y="325" type="line"/>
      <point x="8" y="325" type="line"/>
    </contour>
    <contour>
      <point x="26" y="391" type="line"/>
      <point x="447" y="391" type="line"/>
      <point x="447" y="477" type="line"/>
      <point x="26" y="477" type="line"/>
    </contour>
  </outline>
</glyph>
<glyph name="f_f_i" format="2">
  <advance width="1065"/>
  <outline>
    <contour>
      <point x="76" y="0" type="line"/>
      <point x="244" y="0" type="line"/>
      <point x="244" y="568" type="line" smooth="yes"/>
      <point x="244" y="600"/>
      <point x="262" y="618"/>
      <point x="294" y="618" type="curve" smooth="yes"/>
      <point x="347" y="618" type="line"/>
      <point x="347" y="752" type="line"/>
      <point x="298" y="752" type="line" smooth="yes"/>
      <point x="151" y="752"/>
      <point x="76" y="689"/>
      <point x="76" y="560" type="curve" smooth="yes"/>
    </contour>
    <contour>
      <point x="441" y="0" type="line"/>
      <point x="609" y="0" type="line"/>
      <point x="609" y="562" type="line" smooth="yes"/>
      <point x="609" y="594"/>
      <point x="627" y="612"/>
      <point x="659" y="612" type="curve" smooth="yes"/>
      <point x="730" y="612" type="line"/>
      <point x="730" y="746" type="line"/>
      <point x="663" y="746" type="line" smooth="yes"/>
      <point x="516" y="746"/>
      <point x="441" y="683"/>
      <point x="441" y="554" type="curve" smooth="yes"/>
    </contour>
    <contour>
      <point x="815" y="0" type="line"/>
      <point x="997" y="0" type="line"/>
      <point x="997" y="552" type="line"/>
      <point x="815" y="552" type="line"/>
    </contour>
    <contour>
      <point x="16" y="414" type="line"/>
      <point x="715" y="414" type="line"/>
      <point x="715" y="546" type="line"/>
      <point x="16" y="546" type="line"/>
    </contour>
    <contour>
      <point x="755" y="420" type="line"/>
      <point x="997" y="420" type="line"/>
      <point x="997" y="552" type="line"/>
      <point x="755" y="552" type="line"/>
    </contour>
    <contour>
      <point x="889" y="596" type="curve" smooth="yes"/>
      <point x="955" y="596"/>
      <point x="985" y="634"/>
      <point x="985" y="687" type="curve" smooth="yes"/>
      <point x="985" y="740"/>
      <point x="955" y="778"/>
      <point x="889" y="778" type="curve" smooth="yes"/>
      <point x="823" y="778"/>
      <point x="793" y="740"/>
      <point x="793" y="687" type="curve" smooth="yes"/>
      <point x="793" y="634"/>
      <point x="823" y="596"/>
    </contour>
  </outline>
</glyph>
<glyph name="f_f_j" format="2">
  <advance width="1066"/>
  <outline>
    <contour>
      <point x="76" y="0" type="line"/>
      <point x="244" y="0" type="line"/>
      <point x="244" y="568" type="line" smooth="yes"/>
      <point x="244" y="600"/>
      <point x="262" y="618"/>
      <point x="294" y="618" type="curve" smooth="yes"/>
      <point x="347" y="618" type="line"/>
      <point x="347" y="752" type="line"/>
      <point x="298" y="752" type="line" smooth="yes"/>
      <point x="151" y="752"/>
      <point x="76" y="689"/>
      <point x="76" y="560" type="curve" smooth="yes"/>
    </contour>
    <contour>
      <point x="441" y="0" type="line"/>
      <point x="609" y="0" type="line"/>
      <point x="609" y="562" type="line" smooth="yes"/>
      <point x="609" y="594"/>
      <point x="627" y="612"/>
      <point x="659" y="612" type="curve" smooth="yes"/>
      <point x="716" y="612" type="line"/>
      <point x="716" y="746" type="line"/>
      <point x="663" y="746" type="line" smooth="yes"/>
      <point x="516" y="746"/>
      <point x="441" y="683"/>
      <point x="441" y="554" type="curve" smooth="yes"/>
    </contour>
    <contour>
      <point x="728" y="-204" type="line"/>
      <point x="750" y="-204" type="line" smooth="yes"/>
      <point x="926" y="-204"/>
      <point x="1004" y="-142"/>
      <point x="1004" y="24" type="curve" smooth="yes"/>
      <point x="1004" y="552" type="line"/>
      <point x="828" y="552" type="line"/>
      <point x="828" y="22" type="line" smooth="yes"/>
      <point x="828" y="-26"/>
      <point x="802" y="-52"/>
      <point x="754" y="-52" type="curve" smooth="yes"/>
      <point x="728" y="-52" type="line"/>
    </contour>
    <contour>
      <point x="16" y="414" type="line"/>
      <point x="724" y="414" type="line"/>
      <point x="724" y="546" type="line"/>
      <point x="16" y="546" type="line"/>
    </contour>
    <contour>
      <point x="764" y="420" type="line"/>
      <point x="1004" y="420" type="line"/>
      <point x="1004" y="552" type="line"/>
      <point x="764" y="552" type="line"/>
    </contour>
    <contour>
      <point x="896" y="596" type="curve" smooth="yes"/>
      <point x="962" y="596"/>
      <point x="992" y="634"/>
      <point x="992" y="687" type="curve" smooth="yes"/>
      <point x="992" y="740"/>
      <point x="962" y="778"/>
      <point x="896" y="778" type="curve" smooth="yes"/>
      <point x="830" y="778"/>
      <point x="800" y="740"/>
      <point x="800" y="687" type="curve" smooth="yes"/>
      <point x="800" y="634"/>
      <point x="830" y="596"/>
    </contour>
  </outline>
</glyph>
<glyph name="f_f_j.salt" format="2">
  <advance width="1079"/>
  <outline>
    <contour>
      <point x="76" y="0" type="line"/>
      <point x="244" y="0" type="line"/>
      <point x="244" y="590" type="line" smooth="yes"/>
      <point x="244" y="606"/>
      <point x="250" y="619"/>
      <point x="267" y="619" type="curve" smooth="yes"/>
      <point x="284" y="619"/>
      <point x="290" y="606"/>
      <point x="290" y="590" type="curve"/>
      <point x="424" y="590" type="line"/>
      <point x="424" y="687"/>
      <point x="355" y="746"/>
      <point x="251" y="746" type="curve" smooth="yes"/>
      <point x="141" y="746"/>
      <point x="76" y="682"/>
      <point x="76" y="580" type="curve" smooth="yes"/>
    </contour>
    <contour>
      <point x="454" y="0" type="line"/>
      <point x="622" y="0" type="line"/>
      <point x="622" y="596" type="line" smooth="yes"/>
      <point x="622" y="612"/>
      <point x="629" y="625"/>
      <point x="645" y="625" type="curve" smooth="yes"/>
      <point x="661" y="625"/>
      <point x="668" y="612"/>
      <point x="668" y="596" type="curve"/>
      <point x="802" y="596" type="line"/>
      <point x="802" y="693"/>
      <point x="733" y="752"/>
      <point x="628" y="752" type="curve" smooth="yes"/>
      <point x="517" y="752"/>
      <point x="454" y="688"/>
      <point x="454" y="586" type="curve" smooth="yes"/>
    </contour>
    <contour>
      <point x="741" y="-204" type="line"/>
      <point x="763" y="-204" type="line" smooth="yes"/>
      <point x="939" y="-204"/>
      <point x="1017" y="-142"/>
      <point x="1017" y="24" type="curve" smooth="yes"/>
      <point x="1017" y="552" type="line"/>
      <point x="841" y="552" type="line"/>
      <point x="841" y="22" type="line" smooth="yes"/>
      <point x="841" y="-26"/>
      <point x="815" y="-52"/>
      <point x="767" y="-52" type="curve" smooth="yes"/>
      <point x="741" y="-52" type="line"/>
    </contour>
    <contour>
      <point x="16" y="408" type="line"/>
      <point x="738" y="408" type="line"/>
      <point x="738" y="540" type="line"/>
      <point x="16" y="540" type="line"/>
    </contour>
    <contour>
      <point x="782" y="420" type="line"/>
      <point x="1017" y="420" type="line"/>
      <point x="1017" y="552" type="line"/>
      <point x="782" y="552" type="line"/>
    </contour>
    <contour>
      <point x="923" y="600" type="curve" smooth="yes"/>
      <point x="988" y="600"/>
      <point x="1017" y="637"/>
      <point x="1017" y="689" type="curve" smooth="yes"/>
      <point x="1017" y="741"/>
      <point x="988" y="778"/>
      <point x="923" y="778" type="curve" smooth="yes"/>
      <point x="858" y="778"/>
      <point x="829" y="741"/>
      <point x="829" y="689" type="curve" smooth="yes"/>
      <point x="829" y="637"/>
      <point x="858" y="600"/>
    </contour>
  </outline>
</glyph>
<glyph name="f_j.salt" format="2">
  <advance width="700"/>
  <outline>
    <contour>
      <point x="76" y="0" type="line"/>
      <point x="244" y="0" type="line"/>
      <point x="244" y="596" type="line" smooth="yes"/>
      <point x="244" y="612"/>
      <point x="251" y="625"/>
      <point x="267" y="625" type="curve" smooth="yes"/>
      <point x="283" y="625"/>
      <point x="290" y="612"/>
      <point x="290" y="596" type="curve"/>
      <point x="424" y="596" type="line"/>
      <point x="424" y="693"/>
      <point x="355" y="752"/>
      <point x="250" y="752" type="curve" smooth="yes"/>
      <point x="139" y="752"/>
      <point x="76" y="688"/>
      <point x="76" y="586" type="curve" smooth="yes"/>
    </contour>
    <contour>
      <point x="362" y="-204" type="line"/>
      <point x="384" y="-204" type="line" smooth="yes"/>
      <point x="560" y="-204"/>
      <point x="638" y="-142"/>
      <point x="638" y="24" type="curve" smooth="yes"/>
      <point x="638" y="552" type="line"/>
      <point x="462" y="552" type="line"/>
      <point x="462" y="22" type="line" smooth="yes"/>
      <point x="462" y="-26"/>
      <point x="436" y="-52"/>
      <point x="388" y="-52" type="curve" smooth="yes"/>
      <point x="362" y="-52" type="line"/>
    </contour>
    <contour>
      <point x="16" y="408" type="line"/>
      <point x="360" y="408" type="line"/>
      <point x="360" y="540" type="line"/>
      <point x="16" y="540" type="line"/>
    </contour>
    <contour>
      <point x="404" y="420" type="line"/>
      <point x="638" y="420" type="line"/>
      <point x="638" y="552" type="line"/>
      <point x="404" y="552" type="line"/>
    </contour>
    <contour>
      <point x="544" y="600" type="curve" smooth="yes"/>
      <point x="609" y="600"/>
      <point x="638" y="637"/>
      <point x="638" y="689" type="curve" smooth="yes"/>
      <point x="638" y="741"/>
      <point x="609" y="778"/>
      <point x="544" y="778" type="curve" smooth="yes"/>
      <point x="479" y="778"/>
      <point x="450" y="741"/>
      <point x="450" y="689" type="curve" smooth="yes"/>
      <point x="450" y="637"/>
      <point x="479" y="600"/>
    </contour>
  </outline>
</glyph>
<glyph name="five.tnum" format="2">
  <advance width="676"/>
  <outline>
    <contour>
      <point x="344" y="-20" type="curve" smooth="yes"/>
      <point x="532" y="-20"/>
      <point x="639" y="102"/>
      <point x="639" y="242" type="curve" smooth="yes"/>
      <point x="639" y="254" type="line" smooth="yes"/>
      <point x="639" y="394"/>
      <point x="539" y="496"/>
      <point x="383" y="496" type="curve" smooth="yes"/>
      <point x="281" y="496"/>
      <point x="234" y="455"/>
      <point x="194" y="404" type="curve"/>
      <point x="230" y="394" type="line"/>
      <point x="250" y="615" type="line"/>
      <point x="180" y="570" type="line"/>
      <point x="578" y="570" type="line"/>
      <point x="578" y="730" type="line"/>
      <point x="106" y="730" type="line"/>
      <point x="69" y="310" type="line"/>
      <point x="245" y="310" type="line"/>
      <point x="260" y="341"/>
      <point x="299" y="364"/>
      <point x="348" y="364" type="curve" smooth="yes"/>
      <point x="418" y="364"/>
      <point x="459" y="315"/>
      <point x="459" y="249" type="curve" smooth="yes"/>
      <point x="459" y="183"/>
      <point x="418" y="134"/>
      <point x="346" y="134" type="curve" smooth="yes"/>
      <point x="281" y="134"/>
      <point x="233" y="171"/>
      <point x="233" y="232" type="curve"/>
      <point x="53" y="232" type="line"/>
      <point x="53" y="90"/>
      <point x="167" y="-20"/>
    </contour>
  </outline>
</glyph>
<glyph name="four.tnum" format="2">
  <advance width="676"/>
  <outline>
    <contour>
      <point x="30" y="129" type="line"/>
      <point x="660" y="129" type="line"/>
      <point x="660" y="277" type="line"/>
      <point x="239" y="277" type="line"/>
      <point x="224" y="299" type="line"/>
      <point x="442" y="659" type="line"/>
      <point x="295" y="752" type="line"/>
      <point x="30" y="318" type="line"/>
    </contour>
    <contour>
      <point x="410" y="0" type="line"/>
      <point x="582" y="0" type="line"/>
      <point x="582" y="529" type="line"/>
      <point x="410" y="529" type="line"/>
    </contour>
  </outline>
</glyph>
<glyph name="hyphen.case" format="2">
  <advance width="510"/>
  <outline>
    <contour>
      <point x="36" y="291" type="line"/>
      <point x="474" y="291" type="line"/>
      <point x="474" y="453" type="line"/>
      <point x="36" y="453" type="line"/>
    </contour>
  </outline>
</glyph>
<glyph name="macroncomb.case" format="2">
  <anchor x="205" y="730" name="_top"/>
  <anchor x="205" y="968" name="top"/>
  <outline>
    <contour>
      <point x="0" y="802" type="line"/>
      <point x="410" y="802" type="line"/>
      <point x="410" y="928" type="line"/>
      <point x="0" y="928" type="line"/>
    </contour>
  </outline>
</glyph>
<glyph name="parenleft.case" format="2">
  <advance width="398"/>
  <outline>
    <contour>
      <point x="184" y="-118" type="curve"/>
      <point x="390" y="-118" type="line"/>
      <point x="270" y="21"/>
      <point x="224" y="168"/>
      <point x="224" y="350" type="curve" smooth="yes"/>
      <point x="224" y="533"/>
      <point x="300" y="674"/>
      <point x="390" y="806" type="curve"/>
      <point x="190" y="806" type="line"/>
      <point x="102" y="690"/>
      <point x="44" y="561"/>
      <point x="44" y="350" type="curve" smooth="yes"/>
      <point x="44" y="140"/>
      <point x="96" y="4"/>
    </contour>
  </outline>
</glyph>
<glyph name="riel-khmer.tnum" format="2">
  <advance width="676"/>
  <outline>
    <contour>
      <point x="332" y="-8" type="curve" smooth="yes"/>
      <point x="476" y="-8" type="line"/>
      <point x="476" y="365" type="line"/>
      <point x="336" y="365" type="line"/>
      <point x="332" y="61" type="line"/>
      <point x="369" y="98" type="line"/>
      <point x="329" y="98" type="line" smooth="yes"/>
      <point x="280" y="98"/>
      <point x="252" y="115"/>
      <point x="252" y="149" type="curve" smooth="yes"/>
      <point x="252" y="183"/>
      <point x="280" y="200"/>
      <point x="341" y="200" type="curve"/>
      <point x="341" y="306" type="line"/>
      <point x="185" y="306"/>
      <point x="108" y="247"/>
      <point x="108" y="147" type="curve" smooth="yes"/>
      <point x="108" y="49"/>
      <point x="186" y="-8"/>
    </contour>
    <contour>
      <point x="183" y="334" type="line"/>
      <point x="584" y="334" type="line"/>
      <point x="584" y="440" type="line"/>
      <point x="183" y="440" type="line"/>
    </contour>
    <contour>
      <point x="336" y="408" type="line"/>
      <point x="476" y="408" type="line"/>
      <point x="476" y="440" type="line" smooth="yes"/>
      <point x="476" y="500"/>
      <point x="451" y="529"/>
      <point x="409" y="552" type="curve" smooth="yes"/>
      <point x="387" y="564"/>
      <point x="329" y="595"/>
      <point x="317" y="601" type="curve" smooth="yes"/>
      <point x="307" y="606"/>
      <point x="307" y="612"/>
      <point x="310" y="619" type="curve" smooth="yes"/>
      <point x="313" y="625"/>
      <point x="317" y="628"/>
      <point x="336" y="628" type="curve" smooth="yes"/>
      <point x="396" y="628"/>
      <point x="457" y="623"/>
      <point x="516" y="614" type="curve"/>
      <point x="516" y="736" type="line"/>
      <point x="457" y="745"/>
      <point x="403" y="750"/>
      <point x="341" y="750" type="curve" smooth="yes"/>
      <point x="250" y="750"/>
      <point x="209" y="734"/>
      <point x="183" y="670" type="curve" smooth="yes"/>
      <point x="156" y="604"/>
      <point x="172" y="541"/>
      <point x="230" y="510" type="curve" smooth="yes"/>
      <point x="256" y="496"/>
      <point x="294" y="476"/>
      <point x="322" y="461" type="curve" smooth="yes"/>
      <point x="333" y="455"/>
      <point x="336" y="449"/>
      <point x="336" y="440" type="curve" smooth="yes"/>
    </contour>
  </outline>
</glyph>
<glyph name="seven.salt" format="2">
  <advance width="594"/>
  <outline>
    <contour>
      <point x="164" y="0" type="line"/>
      <point x="350" y="0" type="line"/>
      <point x="350" y="143" type="line" smooth="yes"/>
      <point x="350" y="312"/>
      <point x="401" y="413"/>
      <point x="568" y="497" type="curve"/>
      <point x="568" y="730" type="line"/>
      <point x="16" y="730" type="line"/>
      <point x="16" y="570" type="line"/>
      <point x="384" y="570" type="line"/>
      <point x="392" y="548" type="line"/>
      <point x="243" y="471"/>
      <point x="164" y="335"/>
      <point x="164" y="143" type="curve" smooth="yes"/>
    </contour>
  </outline>
</glyph>
<glyph name="six.tnum" format="2">
  <advance width="676"/>
  <outline>
    <contour>
      <point x="352" y="-22" type="curve" smooth="yes"/>
      <point x="523" y="-22"/>
      <point x="645" y="82"/>
      <point x="645" y="246" type="curve" smooth="yes"/>
      <point x="645" y="397"/>
      <point x="549" y="492"/>
      <point x="404" y="492" type="curve" smooth="yes"/>
      <point x="277" y="492"/>
      <point x="185" y="416"/>
      <point x="183" y="271" type="curve"/>
      <point x="219" y="271" type="line"/>
      <point x="219" y="359" type="line" smooth="yes"/>
      <point x="219" y="504"/>
      <point x="257" y="580"/>
      <point x="408" y="580" type="curve" smooth="yes"/>
      <point x="459" y="580"/>
      <point x="514" y="576"/>
      <point x="556" y="572" type="curve"/>
      <point x="556" y="728" type="line"/>
      <point x="513" y="733"/>
      <point x="461" y="736"/>
      <point x="414" y="736" type="curve" smooth="yes"/>
      <point x="172" y="736"/>
      <point x="47" y="614"/>
      <point x="47" y="368" type="curve" smooth="yes"/>
      <point x="47" y="327" type="line" smooth="yes"/>
      <point x="47" y="132"/>
      <point x="141" y="-22"/>
    </contour>
    <contour>
      <point x="346" y="132" type="curve" smooth="yes"/>
      <point x="269" y="132"/>
      <point x="227" y="178"/>
      <point x="227" y="243" type="curve" smooth="yes"/>
      <point x="227" y="318"/>
      <point x="285" y="354"/>
      <point x="348" y="354" type="curve" smooth="yes"/>
      <point x="419" y="354"/>
      <point x="465" y="310"/>
      <point x="465" y="243" type="curve" smooth="yes"/>
      <point x="465" y="176"/>
      <point x="419" y="132"/>
    </contour>
  </outline>
</glyph>
<glyph name="sora.tnum" format="2">
  <advance width="676"/>
  <outline>
    <contour>
      <point x="154" y="-4" type="line"/>
      <point x="333" y="297" type="line"/>
      <point x="302" y="291" type="line"/>
      <point x="368" y="291" type="line"/>
      <point x="339" y="297" type="line"/>
      <point x="520" y="-4" type="line"/>
      <point x="658" y="76" type="line"/>
      <point x="432" y="442" type="line"/>
      <point x="244" y="442" type="line"/>
      <point x="18" y="76" type="line"/>
    </contour>
    <contour>
      <point x="37" y="442" type="line"/>
      <point x="639" y="442" type="line"/>
      <point x="639" y="546" type="line"/>
      <point x="37" y="546" type="line"/>
    </contour>
    <contour>
      <point x="252" y="526" type="line"/>
      <point x="424" y="526" type="line"/>
      <point x="424" y="674" type="line"/>
      <point x="252" y="674" type="line"/>
    </contour>
    <contour>
      <point x="37" y="626" type="line"/>
      <point x="639" y="626" type="line"/>
      <point x="639" y="730" type="line"/>
      <point x="37" y="730" type="line"/>
    </contour>
  </outline>
</glyph>
<glyph name="t.salt" format="2">
  <advance width="464"/>
  <anchor x="259" y="0" name="bottom"/>
  <anchor x="212" y="292" name="center"/>
  <anchor x="164" y="704" name="top"/>
  <anchor x="246" y="576" name="topright"/>
  <outline>
    <contour>
      <point x="276" y="-14" type="curve" smooth="yes"/>
      <point x="402" y="-14"/>
      <point x="454" y="60"/>
      <point x="454" y="177" type="curve"/>
      <point x="326" y="177" type="line"/>
      <point x="326" y="148"/>
      <point x="314" y="130"/>
      <point x="288" y="130" type="curve" smooth="yes"/>
      <point x="262" y="130"/>
      <point x="248" y="148"/>
      <point x="248" y="177" type="curve" smooth="yes"/>
      <point x="248" y="494" type="line"/>
      <point x="80" y="494" type="line"/>
      <point x="80" y="181" type="line" smooth="yes"/>
      <point x="80" y="56"/>
      <point x="152" y="-14"/>
    </contour>
    <contour>
      <point x="2" y="420" type="line"/>
      <point x="440" y="420" type="line"/>
      <point x="440" y="552" type="line"/>
      <point x="2" y="552" type="line"/>
    </contour>
    <contour>
      <point x="80" y="502" type="line"/>
      <point x="248" y="502" type="line"/>
      <point x="248" y="704" type="line"/>
      <point x="80" y="704" type="line"/>
    </contour>
  </outline>
</glyph>
<glyph name="three.tnum" format="2">
  <advance width="676"/>
  <outline>
    <contour>
      <point x="331" y="-20" type="curve" smooth="yes"/>
      <point x="505" y="-20"/>
      <point x="617" y="78"/>
      <point x="617" y="217" type="curve" smooth="yes"/>
      <point x="617" y="229" type="line" smooth="yes"/>
      <point x="617" y="370"/>
      <point x="505" y="454"/>
      <point x="331" y="454" type="curve" smooth="yes"/>
      <point x="302" y="454"/>
      <point x="264" y="449"/>
      <point x="232" y="439" type="curve"/>
      <point x="326" y="410" type="line"/>
      <point x="590" y="571" type="line"/>
      <point x="590" y="730" type="line"/>
      <point x="76" y="730" type="line"/>
      <point x="76" y="570" type="line"/>
      <point x="353" y="570" type="line"/>
      <point x="362" y="554" type="line"/>
      <point x="156" y="426" type="line"/>
      <point x="239" y="289" type="line"/>
      <point x="261" y="309"/>
      <point x="295" y="324"/>
      <point x="331" y="324" type="curve" smooth="yes"/>
      <point x="397" y="324"/>
      <point x="437" y="283"/>
      <point x="437" y="229" type="curve" smooth="yes"/>
      <point x="437" y="174"/>
      <point x="397" y="134"/>
      <point x="331" y="134" type="curve" smooth="yes"/>
      <point x="265" y="134"/>
      <point x="225" y="170"/>
      <point x="225" y="222" type="curve"/>
      <point x="45" y="222" type="line"/>
      <point x="45" y="81"/>
      <point x="156" y="-20"/>
    </contour>
  </outline>
</glyph>
